<?xml version="1.0" encoding="iso-8859-1"?>
<!-- Uploaded to: SVG Repo, www.svgrepo.com, Generator: SVG Repo Mixer Tools -->
<!DOCTYPE svg PUBLIC "-//W3C//DTD SVG 1.1//EN" "http://www.w3.org/Graphics/SVG/1.1/DTD/svg11.dtd">
<svg fill="#f7ae14" height="800px" width="800px" version="1.1" id="Capa_1" xmlns="http://www.w3.org/2000/svg" xmlns:xlink="http://www.w3.org/1999/xlink"
	 viewBox="0 0 211.399 211.399" xml:space="preserve">
<g>
	<path d="M182.327,44.824c-16.482-12.068-37.005-19.272-54.9-19.272c-18.011,0-31.322,7.262-39.563,21.583
		c-6.457,11.221-9.597,26.52-9.597,46.771c0,20.25,3.139,35.549,9.597,46.771c8.242,14.321,21.553,21.583,39.563,21.583
		c17.895,0,38.418-7.205,54.9-19.273c18.748-13.727,29.072-31.158,29.072-49.081C211.399,75.981,201.074,58.55,182.327,44.824z
		 M173.465,130.883c-13.795,10.101-31.437,16.376-46.039,16.376c-15.904,0-34.16-6.064-34.16-53.354
		c0-47.289,18.256-53.354,34.16-53.354c14.603,0,32.244,6.275,46.039,16.375c14.575,10.671,22.934,24.149,22.934,36.979
		C196.399,106.734,188.04,120.212,173.465,130.883z"/>

	<line x1="10" y1="60" x2="65" y2="140" stroke="#f7ae14" stroke-width="14" stroke-linecap="round" />
	<line x1="65" y1="60" x2="10" y2="140" stroke="#f7ae14" stroke-width="14" stroke-linecap="round" />

</g>
</svg>